<svg xmlns="http://www.w3.org/2000/svg" viewBox="0 0 865.95 735.1"><defs><style>.cls-1{fill:#727277;}</style></defs><g id="Layer_2" data-name="Layer 2"><g id="Layer_1-2" data-name="Layer 1"><path class="cls-1" d="M72.37,553.4H0V420.05H70.17q18.19,0,28.29,9.9A32.46,32.46,0,0,1,108.56,454q0,12.19-6.6,20.39a27.61,27.61,0,0,1-16.39,10.2q10.8,1.59,18.19,11a34.25,34.25,0,0,1,7.4,21.79q0,15.6-10.2,25.8T72.37,553.4Zm-8.39-80q7.2,0,11.39-4A13.69,13.69,0,0,0,79.57,459a13.85,13.85,0,0,0-4.3-10.5Q71,444.45,64,444.44H28.39v29Zm1,55.38q8,0,12.59-4.1t4.6-11.29a14.9,14.9,0,0,0-4.6-11.1q-4.6-4.5-12.59-4.5H28.39v31Z"/><path class="cls-1" d="M227.32,553.4H142.55V420.05h28.39V528.41h56.38Z"/><path class="cls-1" d="M357.37,540.81q-15.28,15-44.88,15t-44.88-15.09q-15.3-15.11-15.3-40.49V420.05H281.1v79.17q0,14.4,8.2,22.89t23.19,8.5q15,0,23.09-8.5t8.1-22.89V420.05h29v80Q372.67,525.81,357.37,540.81Z"/><path class="cls-1" d="M473.43,555.8q-30.39,0-50.68-19.29t-20.3-49.68q0-30.39,20.3-49.69t50.68-19.29q37.38,0,55.78,32.59l-24.39,12a36.91,36.91,0,0,0-12.9-13.89,33.44,33.44,0,0,0-18.49-5.5q-18.19,0-30,12.4t-11.8,31.39q0,19,11.8,31.38t30,12.4a33.83,33.83,0,0,0,18.49-5.4,35.7,35.7,0,0,0,12.9-14L529.21,523Q510.2,555.8,473.43,555.8Z"/><path class="cls-1" d="M619.38,555.8q-30.2,0-49.89-19.49T549.8,486.83q0-30,19.69-49.49t49.89-19.49q30.38,0,50.08,19.39t19.69,49.59q0,30.18-19.69,49.58T619.38,555.8Zm-29.29-37.59q11.08,12.4,29.29,12.4t29.38-12.4Q660,505.82,660,486.83t-11.2-31.39Q637.57,443,619.38,443t-29.29,12.4Q579,467.83,579,486.83T590.09,518.21Z"/><path class="cls-1" d="M863.69,553.4H835.1V460L797.51,553.4H785.12L747.53,460V553.4H719.14V420.05h39.79l32.38,80.57,32.39-80.57h40Z"/><path class="cls-1" d="M20.29,640.81H14.56V599.89H0v-5.1H34.91v5.1H20.29Z"/><path class="cls-1" d="M105.78,640.81H75.62v-46h30.16v5.1H81.35v14.84h23.94v5.1H81.35V635.7h24.43Z"/><path class="cls-1" d="M169.81,641.64A23.14,23.14,0,0,1,152.94,635q-6.8-6.66-6.8-17.15t6.8-17.14A23.14,23.14,0,0,1,169.81,594a20.22,20.22,0,0,1,17.45,9.11l-4.83,2.69a15.08,15.08,0,0,0-5.38-4.83,14.69,14.69,0,0,0-7.24-1.87,16.83,16.83,0,0,0-12.66,5.28,20.27,20.27,0,0,0,0,26.84,16.83,16.83,0,0,0,12.66,5.28,15,15,0,0,0,7.24-1.83,14.62,14.62,0,0,0,5.38-4.86l4.9,2.69Q180.64,641.64,169.81,641.64Z"/><path class="cls-1" d="M266.13,640.81H260.4V619.69H233.49v21.12h-5.72v-46h5.72v19.8H260.4v-19.8h5.73Z"/><path class="cls-1" d="M348.1,640.81h-5.52L315.74,604.1v36.71H310v-46h5.87l26.5,35.94V594.79h5.72Z"/><path class="cls-1" d="M413,641.64q-10.14,0-16.49-6.76t-6.35-17q0-10.27,6.35-17T413,594q10.08,0,16.46,6.76t6.38,17q0,10.29-6.38,17T413,641.64Zm0-5.11a15.56,15.56,0,0,0,12.25-5.28q4.65-5.28,4.66-13.42t-4.66-13.45a17,17,0,0,0-24.53,0q-4.62,5.24-4.62,13.45t4.62,13.42A15.52,15.52,0,0,0,413,636.53Z"/><path class="cls-1" d="M505,640.81H477.89v-46h5.73V635.7H505Z"/><path class="cls-1" d="M564.83,641.64q-10.14,0-16.49-6.76t-6.35-17q0-10.27,6.35-17T564.83,594q10.08,0,16.46,6.76t6.38,17q0,10.29-6.38,17T564.83,641.64Zm0-5.11a15.56,15.56,0,0,0,12.25-5.28q4.65-5.28,4.66-13.42t-4.66-13.45a17,17,0,0,0-24.53,0q-4.62,5.24-4.62,13.45t4.62,13.42A15.51,15.51,0,0,0,564.83,636.53Z"/><path class="cls-1" d="M651.56,641.71a23.16,23.16,0,0,1-16.83-6.66q-6.84-6.66-6.83-17.22t6.83-17.18A23.21,23.21,0,0,1,651.56,594a21.94,21.94,0,0,1,17.87,8.62l-4.55,2.83a15.72,15.72,0,0,0-5.76-4.62,17.1,17.1,0,0,0-7.56-1.73,16.83,16.83,0,0,0-12.66,5.28,20.35,20.35,0,0,0,0,26.88,16.78,16.78,0,0,0,12.66,5.31,17,17,0,0,0,7.08-1.48,17.76,17.76,0,0,0,5.28-3.49v-9.38H648.11v-5.11h21.53v16.63A23.2,23.2,0,0,1,651.56,641.71Z"/><path class="cls-1" d="M717.8,640.81h-5.72v-46h5.72Z"/><path class="cls-1" d="M791.84,640.81H761.69v-46h30.15v5.1H767.42v14.84h23.94v5.1H767.42V635.7h24.42Z"/><path class="cls-1" d="M849,641.64q-11.18,0-17.66-7.32l3.38-4.34a18.67,18.67,0,0,0,14.49,6.55q5.58,0,8.21-2.38A7.29,7.29,0,0,0,860,628.6a5.84,5.84,0,0,0-1.52-4.08,10.24,10.24,0,0,0-3.9-2.58,45,45,0,0,0-5.31-1.69c-1.95-.51-3.9-1.07-5.83-1.69a29.53,29.53,0,0,1-5.28-2.25,10.67,10.67,0,0,1-3.9-3.72,10.56,10.56,0,0,1-1.51-5.73,11.21,11.21,0,0,1,4.48-9.21,17.65,17.65,0,0,1,11.32-3.55q10.28,0,16.35,6.41l-3.45,4.21q-5-5.52-13.32-5.52a10.82,10.82,0,0,0-6.79,2,6.35,6.35,0,0,0-2.66,5.28,4.87,4.87,0,0,0,2,4,13.24,13.24,0,0,0,5,2.34q3,.76,6.56,1.9t6.55,2.42a11.92,11.92,0,0,1,5,4.1,11.39,11.39,0,0,1,2,6.83,12.68,12.68,0,0,1-4.18,9.59Q857.6,641.65,849,641.64Z"/><path class="cls-1" d="M12.83,732.68l-3.1,2.42a52.67,52.67,0,0,1,0-61l3.1,2.35a74.26,74.26,0,0,0-5.41,13.66,60.69,60.69,0,0,0,0,29A70.25,70.25,0,0,0,12.83,732.68Z"/><path class="cls-1" d="M37.12,722.2q-11.17,0-17.66-7.32l3.38-4.35a18.65,18.65,0,0,0,14.49,6.56q5.58,0,8.21-2.38a7.29,7.29,0,0,0,2.62-5.56,5.84,5.84,0,0,0-1.52-4.07,10.24,10.24,0,0,0-3.9-2.58,45,45,0,0,0-5.31-1.69c-2-.51-3.9-1.07-5.83-1.7a29.51,29.51,0,0,1-5.28-2.24,10.67,10.67,0,0,1-3.9-3.72,10.56,10.56,0,0,1-1.51-5.73,11.21,11.21,0,0,1,4.48-9.21,17.65,17.65,0,0,1,11.32-3.56q10.27,0,16.35,6.42l-3.45,4.21q-5-5.52-13.32-5.52a10.82,10.82,0,0,0-6.79,2,6.34,6.34,0,0,0-2.66,5.27,4.88,4.88,0,0,0,2,4,13.24,13.24,0,0,0,5,2.34q3,.76,6.56,1.9T47,697.73a11.94,11.94,0,0,1,5,4.11,11.36,11.36,0,0,1,2,6.83,12.68,12.68,0,0,1-4.17,9.59Q45.75,722.19,37.12,722.2Z"/><path class="cls-1" d="M110.47,721.37h-5.73V683.49L89.08,721.37H86.73L71.14,683.49v37.88H65.41v-46h8.21L87.9,710l14.36-34.64h8.21Z"/><path class="cls-1" d="M145.79,722.2a23.18,23.18,0,0,1-16.87-6.66q-6.79-6.66-6.79-17.15t6.79-17.15a23.21,23.21,0,0,1,16.87-6.65,20.26,20.26,0,0,1,17.46,9.1l-4.83,2.69a15.36,15.36,0,0,0-5.38-4.83,14.79,14.79,0,0,0-7.25-1.86A16.83,16.83,0,0,0,133.13,685a20.3,20.3,0,0,0,0,26.84,16.83,16.83,0,0,0,12.66,5.28,15,15,0,0,0,7.25-1.83,14.7,14.7,0,0,0,5.38-4.86l4.9,2.69Q156.63,722.2,145.79,722.2Z"/><path class="cls-1" d="M186.64,707H170.08v-4.56h16.56Z"/><path class="cls-1" d="M202.58,721.37h-5.73v-46h18.5q6.69,0,10.55,4a14.47,14.47,0,0,1,0,19.73q-3.9,4-10.52,4H202.58ZM214.66,698a9.18,9.18,0,0,0,6.62-2.45,9.09,9.09,0,0,0,0-12.63,9.18,9.18,0,0,0-6.62-2.45H202.58V698Z"/><path class="cls-1" d="M261,721.37h-7.1l-18.49-46h6.55l15.53,39.75L273,675.34h6.56Z"/><path class="cls-1" d="M305.39,721.37h-5.73V680.45H285.1v-5.11H320v5.11H305.39Z"/><path class="cls-1" d="M329.26,735.1l-3.1-2.42a71.87,71.87,0,0,0,5.45-13.55,60,60,0,0,0,0-29.09,74.09,74.09,0,0,0-5.45-13.59l3.1-2.35a52.36,52.36,0,0,1,0,61Z"/><path class="cls-1" d="M397.92,721.37H370.8v-46h5.73v40.92h21.39Z"/><path class="cls-1" d="M419,721.37h-5.73V680.45H398.68v-5.11h34.91v5.11H419Z"/><path class="cls-1" d="M459.67,721.37H443.94v-46h15.73q10.56,0,17.08,6.56a22.42,22.42,0,0,1,6.52,16.49q0,10-6.52,16.49T459.67,721.37Zm0-5.11q8.15,0,12.9-5.1a18,18,0,0,0,4.77-12.77,18.22,18.22,0,0,0-4.7-12.83q-4.69-5.12-13-5.11h-10v35.81Z"/><path class="cls-1" d="M498.38,721a3.81,3.81,0,1,1,1.11-2.69A3.65,3.65,0,0,1,498.38,721Z"/><path class="cls-1" d="M0,0V375.23H375.23V0ZM126.56,298.07l.13-141.3,0-31.6A50.11,50.11,0,0,1,176.83,75.1c39.36,0,63.35,43.3,42.49,76.68l-9.23,14.76-7.92,12.67L127.85,298.07l-1.23,2-.06.09Zm89.67-9.16a70.21,70.21,0,0,1-37.73,11.22H126.57l94.76-126.45a70.64,70.64,0,0,1-5.1,115.23Z"/></g></g></svg>