<svg xmlns="http://www.w3.org/2000/svg" viewBox="0 0 194.13 194.13"><defs><style>.cls-1{fill:#1863dc;}.cls-2{fill:#a7c4f2;}.cls-3{fill:#fff;}</style></defs><g id="Layer_2" data-name="Layer 2"><g id="Layer_1-2" data-name="Layer 1"><path class="cls-1" d="M151.46,194.13H42.67A42.66,42.66,0,0,1,0,151.46V42.67A42.64,42.64,0,0,1,42.67,0H151.46a42.66,42.66,0,0,1,42.67,42.67V151.46A42.66,42.66,0,0,1,151.46,194.13Z"/><path class="cls-2" d="M132.56,121.41a41.09,41.09,0,0,1-40.8,41.07H61.57L116.67,89A41,41,0,0,1,132.56,121.41Z"/><path class="cls-3" d="M90.79,31.65A29.14,29.14,0,0,1,115.5,76.23l-10,16-43.21,69.1-.75,1.2v-1.2l.07-82.15,0-18.37A29.13,29.13,0,0,1,90.79,31.65Z"/></g></g></svg>