<svg xmlns="http://www.w3.org/2000/svg" viewBox="0 0 776.5 142.1"><defs><style>.cls-1{fill:#709ee9;}.cls-2{fill:#1863dc;}.cls-3{fill:#727277;}</style></defs><g id="Layer_2" data-name="Layer 2"><g id="Layer_1-2" data-name="Layer 1"><path class="cls-1" d="M77.11,97.48A44.64,44.64,0,0,1,32.78,142.1H0L59.84,62.26A44.5,44.5,0,0,1,77.11,97.48Z"/><path class="cls-2" d="M58.56,48.41l-5.82,9.32-5,8L.81,140.78,0,142.1v-1.32L.07,51.57l0-19.94A31.66,31.66,0,0,1,31.73,0C56.58,0,71.75,27.35,58.56,48.41Z"/><path class="cls-3" d="M190.22,73.66c7.49-3.35,10.5-9.35,10.5-15.59,0-16.24-11.89-23.41-27.82-23.41H134.62v80.76H172.9c16.74,0,30.24-5.78,30.24-23.76C203.14,86.57,199.66,76.54,190.22,73.66ZM149.61,48.51H172.9c9.69,0,12.7,6.24,12.7,9.93,0,4.6-3.11,8.64-12.7,8.64H149.61Zm23.29,52.72H149.61V80.46H172.9c6.24,0,15.12,3.81,15.12,11.08C188,99.15,179.14,101.23,172.9,101.23Z"/><path class="cls-3" d="M234.3,101.35V34.66H219.09v80.76h56.75V101.35Z"/><path class="cls-3" d="M347.52,34.79V81c0,13.85-7.17,22.27-19.74,22.27S306.91,95.58,306.91,81V34.79H291.79V81c0,24.35,16.51,36.11,35.89,36.11,20.3,0,34.93-12.23,34.93-36.11V34.79Z"/><path class="cls-3" d="M457.62,94.77A29.62,29.62,0,0,1,437.34,103c-20,0-27.69-14-27.81-27.35s8.32-28,27.81-28a27.62,27.62,0,0,1,19.48,7.63L467,45.4a41.6,41.6,0,0,0-29.63-12.35c-29.18,0-42.9,21.45-42.81,42.56s12.82,41.64,42.81,41.64c11.65,0,22.36-3.79,30.68-12Z"/><path class="cls-3" d="M524.77,33.05c-23.43,0-41.88,17.07-41.88,42.56,0,21.24,13.17,41.64,41.52,41.64s41.19-20.87,41.41-41.76S552.32,33.29,524.77,33.05Zm-.36,70.26c-19,0-26.18-14.19-26.52-27.45-.46-16,9.69-29,26.88-29,18.57.35,26.3,15.34,26.06,28.85C550.61,89,543.44,103.31,524.41,103.31Z"/><path class="cls-3" d="M649.85,34.79,624.58,69.5,599.31,34.79H581.8v80.75H597V56.83L622.75,92h3L652,56.92v58.62h15.24V34.79Z"/><path class="cls-3" d="M759.08,34.79,733.81,69.5,708.56,34.79H691v80.75h15.24V56.83L732,92h3l26.3-35.08v58.62H776.5V34.79Z"/></g></g></svg>